HIERARCHY
ROOT root
{
	OFFSET 0.000000 0.000000 0.000000
	CHANNELS 6 Xposition Yposition Zposition Zrotation Yrotation Xrotation
	JOINT lhip
	{
		OFFSET 0.058581 -0.082280 -0.017664
		CHANNELS 3 Zrotation Yrotation Xrotation
		JOINT lknee
		{
			OFFSET 0.043451 -0.386469 0.008037
			CHANNELS 3 Zrotation Yrotation Xrotation
			JOINT lankle
			{
				OFFSET -0.014790 -0.426874 -0.037428
				CHANNELS 3 Zrotation Yrotation Xrotation
				JOINT ltoe
				{
					OFFSET 0.041054 -0.060286 0.122042
					CHANNELS 3 Zrotation Yrotation Xrotation
					End Site
					{
						OFFSET 0.000000 0.000000 0.000000
					}
				}
			}
		}
	}
	JOINT rhip
	{
		OFFSET -0.060310 -0.090513 -0.013543
		CHANNELS 3 Zrotation Yrotation Xrotation
		JOINT rknee
		{
			OFFSET -0.043257 -0.383688 -0.004843
			CHANNELS 3 Zrotation Yrotation Xrotation
			JOINT rankle
			{
				OFFSET 0.019056 -0.420046 -0.034562
				CHANNELS 3 Zrotation Yrotation Xrotation
				JOINT rtoe
				{
					OFFSET -0.034840 -0.062106 0.130323
					CHANNELS 3 Zrotation Yrotation Xrotation
					End Site
					{
						OFFSET 0.000000 0.000000 0.000000
					}
				}
			}
		}
	}
	JOINT lowerback
	{
		OFFSET 0.004439 0.124404 -0.038385
		CHANNELS 3 Zrotation Yrotation Xrotation
		JOINT upperback
		{
			OFFSET 0.004488 0.137956 0.026820
			CHANNELS 3 Zrotation Yrotation Xrotation
			JOINT chest
			{
				OFFSET -0.002265 0.056032 0.002855
				CHANNELS 3 Zrotation Yrotation Xrotation
				JOINT lowerneck
				{
					OFFSET -0.013390 0.211636 -0.033468
					CHANNELS 3 Zrotation Yrotation Xrotation
					JOINT upperneck
					{
						OFFSET 0.010113 0.088937 0.050410
						CHANNELS 3 Zrotation Yrotation Xrotation
						End Site
						{
							OFFSET 0.000000 0.000000 0.000000
						}
					}
				}
				JOINT lclavicle
				{
					OFFSET 0.071702 0.114000 -0.018898
					CHANNELS 3 Zrotation Yrotation Xrotation
					JOINT lshoulder
					{
						OFFSET 0.122921 0.045205 -0.019046
						CHANNELS 3 Zrotation Yrotation Xrotation
						JOINT lelbow
						{
							OFFSET 0.255332 -0.015649 -0.022946
							CHANNELS 3 Zrotation Yrotation Xrotation
							JOINT lwrist
							{
								OFFSET 0.265709 0.012698 -0.007375
								CHANNELS 3 Zrotation Yrotation Xrotation
								End Site
								{
									OFFSET 0.000000 0.000000 0.000000
								}
							}
						}
					}
				}
				JOINT rclavicle
				{
					OFFSET -0.082954 0.112472 -0.023707
					CHANNELS 3 Zrotation Yrotation Xrotation
					JOINT rshoulder
					{
						OFFSET -0.113228 0.046853 -0.008472
						CHANNELS 3 Zrotation Yrotation Xrotation
						JOINT relbow
						{
							OFFSET -0.260127 -0.014369 -0.031269
							CHANNELS 3 Zrotation Yrotation Xrotation
							JOINT rwrist
							{
								OFFSET -0.269108 0.006794 -0.006027
								CHANNELS 3 Zrotation Yrotation Xrotation
								End Site
								{
									OFFSET 0.000000 0.000000 0.000000
								}
							}
						}
					}
				}
			}
		}
	}
}
MOTION
Frames: 17
Frame Time: 0.033333
-0.848883 1.012079 0.874954 84.809041 1.496369 129.934995 18.536443 17.431779 -65.135552 -11.733368 4.602857 21.901548 -5.216476 -6.369394 -4.537793 0.000000 -0.000000 0.000000 -12.840181 -16.791239 -69.785950 7.179540 -7.453466 26.642087 16.040217 8.414322 -2.783684 0.000000 -0.000000 0.000000 2.123860 0.350717 49.260122 -3.137699 -2.236584 -18.756890 2.927631 -0.996348 3.644034 -13.570821 6.605905 -29.875346 7.648281 -4.253195 -15.590330 13.598810 -22.278178 -6.432611 -55.490273 -17.252534 21.067637 -25.866979 -31.627061 58.081206 85.195789 -28.642649 -30.088670 -11.715430 21.252776 -2.516374 50.857432 22.070860 16.455709 26.007453 30.657720 70.242433 -67.559082 42.736095 -2.094018 
-0.848735 1.012200 0.875128 84.627491 1.644658 129.881395 18.785205 17.399227 -64.876057 -11.603633 4.682628 21.737199 -5.133611 -6.187534 -4.664600 0.000000 -0.000000 0.000000 -12.791443 -16.748452 -69.702427 7.110443 -7.857769 26.513764 16.046897 8.868109 -2.569600 0.000000 -0.000000 0.000000 2.042408 0.481132 49.114442 -2.971791 -2.256108 -18.561027 2.885326 -0.909929 3.736814 -13.668494 7.065388 -30.296488 7.672829 -4.567155 -15.532167 13.752665 -21.640521 -6.814905 -55.864014 -17.822863 21.552342 -25.911904 -30.927563 58.031334 85.536024 -28.293819 -30.494370 -11.626338 20.890542 -2.648705 51.261383 22.658156 16.999402 25.331594 29.645875 69.938955 -68.863036 42.640269 -2.714587 
-0.848485 1.012510 0.875519 84.624600 1.791521 129.988408 18.893633 17.349981 -64.998762 -11.369748 4.761784 21.888584 -5.128986 -6.196224 -4.741169 0.000000 -0.000000 0.000000 -12.585736 -16.831277 -69.481679 7.249997 -7.974180 25.956372 16.122059 9.130535 -2.504725 0.000000 -0.000000 0.000000 2.170687 0.486279 48.865648 -2.978645 -2.324261 -19.012958 3.002666 -0.994935 4.092553 -13.787823 7.031778 -30.062919 7.641253 -4.245297 -15.586283 13.463535 -22.069201 -6.392880 -55.696020 -17.738468 21.204653 -25.400960 -31.044892 57.945323 84.897980 -28.778210 -29.913406 -11.774964 21.140478 -2.499157 51.600569 22.674697 16.796257 24.551524 29.181761 69.843085 -68.586350 42.893457 -2.094354 
-0.847905 1.012402 0.876600 84.496539 1.995506 129.925279 19.015275 17.616859 -64.738317 -11.530287 4.651031 21.724377 -5.172103 -6.062111 -4.710336 0.000000 -0.000000 0.000000 -12.462190 -16.789627 -69.081047 7.476031 -8.168239 25.379822 16.323248 9.323798 -2.157774 0.000000 -0.000000 0.000000 2.065641 0.608217 48.907113 -2.915582 -2.339996 -19.154348 3.057003 -1.116635 4.165725 -13.798404 7.620063 -30.110202 7.266222 -4.168193 -15.387681 13.487700 -22.078558 -6.365525 -55.813861 -17.650285 21.266990 -25.090506 -30.907716 58.579959 83.557316 -28.532777 -29.828923 -11.669905 21.027622 -2.702414 51.880434 22.992968 17.197040 24.031182 28.368790 71.002099 -67.310855 41.919486 -1.694862 
-0.847531 1.011985 0.877256 84.420321 2.259661 129.709881 19.180985 17.999320 -64.352648 -11.666205 4.623170 21.435959 -5.560113 -6.188017 -4.382080 0.000000 -0.000000 0.000000 -12.174229 -16.687774 -68.673193 7.597423 -8.282070 24.986026 16.474005 9.565429 -2.123841 0.000000 -0.000000 0.000000 2.063220 0.573156 49.395836 -2.993620 -2.254656 -19.157110 3.152584 -1.052842 3.826568 -13.458578 7.212843 -30.468148 7.428603 -4.409092 -15.189719 13.506515 -22.076864 -6.599467 -55.868711 -17.515485 21.244867 -25.216084 -30.666274 58.396064 83.909348 -28.587996 -29.818109 -11.983132 21.304055 -2.832516 52.210018 23.007910 17.275014 23.794920 27.667145 70.631582 -66.854144 41.711900 -1.488407 
-0.847242 1.011783 0.877138 84.336660 2.300001 129.660486 19.260409 18.001867 -64.227871 -11.590415 4.661925 21.260420 -5.766923 -6.196252 -4.145233 0.000000 -0.000000 0.000000 -12.126997 -16.837647 -68.460213 7.829961 -8.449042 24.626314 16.463471 9.744792 -1.892609 0.000000 -0.000000 0.000000 2.036743 0.663317 49.178880 -2.994325 -2.374043 -18.796748 3.114195 -1.057058 3.704533 -13.675165 7.382359 -29.941175 7.629849 -4.256531 -15.897414 13.474948 -22.377142 -6.368312 -55.707010 -17.442444 21.113895 -24.921724 -30.669014 58.180908 83.391085 -28.571111 -29.962601 -11.812016 21.670750 -2.700990 52.339560 23.133234 17.164220 23.049962 26.783963 70.103097 -65.894081 41.706963 -1.084204 
-0.846902 1.011912 0.877772 84.287852 2.366055 129.771658 19.242891 17.969416 -64.238131 -11.407239 4.573957 21.138006 -5.821735 -5.998133 -4.090752 0.000000 -0.000000 0.000000 -11.950087 -16.956563 -68.183210 7.954787 -8.490275 23.921183 16.722682 9.857813 -1.689480 0.000000 -0.000000 0.000000 2.015445 0.728312 49.082162 -3.038647 -2.439115 -18.842530 3.120274 -1.131989 3.708391 -13.688900 7.311564 -30.072494 7.697015 -4.177296 -15.863964 13.555556 -22.335787 -6.337730 -56.013481 -17.449730 21.132502 -24.611903 -30.413053 57.983292 84.400218 -28.539023 -30.248203 -11.683059 21.798962 -2.799833 52.843990 23.454045 17.230165 22.330297 25.352283 69.355813 -66.564702 42.259263 -1.312390 
-0.846533 1.011601 0.878071 84.311849 2.470673 129.662517 19.368213 18.092419 -64.098281 -11.528510 4.642265 21.208609 -5.851980 -6.207357 -4.189989 0.000000 -0.000000 0.000000 -11.866073 -17.179630 -68.002351 8.201940 -8.921438 23.890715 17.062164 10.256479 -1.541172 0.000000 -0.000000 0.000000 1.981158 0.787674 49.000635 -2.982939 -2.463987 -18.460645 3.130337 -1.043607 3.529714 -13.731935 7.328903 -30.001471 7.586929 -4.349889 -15.803183 13.639550 -22.405070 -6.463211 -56.141667 -17.522269 21.136671 -24.568059 -30.133975 57.603755 84.353231 -28.786987 -30.094089 -11.550707 22.053652 -2.653790 53.079973 23.455324 17.094391 21.649051 24.620578 68.501511 -65.227783 43.129330 0.081527 
-0.846594 1.011627 0.878632 84.309173 2.661376 129.728225 19.365928 18.187918 -64.140834 -11.322911 4.514564 21.238406 -5.911710 -6.233486 -4.254064 0.000000 -0.000000 0.000000 -11.741465 -17.194391 -67.792908 8.295319 -9.330951 23.462573 17.209034 10.610396 -1.417255 0.000000 -0.000000 0.000000 2.010569 0.758986 49.073525 -3.087192 -2.440539 -18.466685 3.091485 -0.978746 3.305171 -13.730707 7.565765 -29.728546 7.494709 -4.518689 -15.767813 13.834248 -22.424875 -6.538463 -56.407303 -17.402820 21.328479 -24.304600 -30.065481 57.673293 84.788972 -28.321506 -30.190579 -11.610360 22.402724 -2.343175 53.732242 23.635095 17.272212 20.701738 24.036542 67.851193 -68.231676 42.961949 -1.803808 
-0.847044 1.011520 0.879233 84.296518 2.660177 129.971494 19.352828 18.033097 -64.237427 -11.156664 4.380192 21.020119 -5.756501 -5.950060 -4.347921 0.000000 -0.000000 0.000000 -11.570894 -17.288181 -67.809803 8.357233 -9.268673 23.024584 17.584866 10.557418 -1.354748 0.000000 -0.000000 0.000000 1.858632 0.849984 48.846007 -3.155296 -2.405740 -18.615696 3.053760 -0.966702 3.591487 -13.726928 7.716414 -30.141762 7.594161 -4.783587 -15.776598 14.030568 -22.204045 -6.372152 -56.633794 -17.798894 21.533873 -23.950958 -30.215858 57.841158 85.326892 -27.711165 -30.726191 -11.372080 22.312079 -2.221178 54.000832 24.198902 17.547554 20.574052 22.857349 67.695539 -69.154406 42.464396 -2.936570 
-0.847097 1.011582 0.879650 84.488945 2.720084 130.121233 19.298744 17.990072 -64.337416 -11.023126 4.277144 20.864786 -5.793396 -6.017712 -4.241953 0.000000 -0.000000 0.000000 -11.648361 -17.293574 -67.650119 8.310466 -9.778216 22.801307 17.978643 10.488158 -1.085126 0.000000 -0.000000 0.000000 1.950839 0.823279 48.721423 -3.158628 -2.347315 -18.628591 3.024980 -0.937973 3.717266 -13.742684 7.752334 -30.149027 7.438950 -4.695110 -15.863955 14.039235 -22.152863 -6.479701 -56.778223 -18.007400 21.737500 -23.793770 -29.970142 57.566644 85.186946 -27.941639 -30.618668 -11.271902 22.340177 -2.379142 54.140557 24.108329 17.869332 20.414525 22.581464 67.415500 -68.670873 42.460550 -2.950843 
-0.847412 1.011795 0.880058 84.580389 2.744468 130.070344 19.341363 17.874200 -64.284340 -10.936894 4.199698 20.771915 -5.838265 -5.975368 -4.075435 0.000000 -0.000000 0.000000 -11.678099 -17.286584 -67.484457 8.419929 -9.673199 22.704991 17.747113 10.680631 -1.757077 0.000000 -0.000000 0.000000 1.954097 0.913700 48.722126 -3.140787 -2.375002 -18.269789 3.034089 -0.844436 3.569867 -13.850802 7.825324 -30.262877 7.557846 -4.622660 -15.904736 14.072623 -22.276411 -6.764931 -56.794012 -17.878137 21.766521 -23.728889 -29.977104 57.600985 85.049990 -27.865829 -30.577553 -11.226928 22.378065 -2.455459 54.104584 23.881406 17.603192 20.292674 22.664673 67.712780 -66.661580 42.421153 -1.799649 
-0.848179 1.012216 0.880625 84.693081 2.787544 130.329936 19.438433 17.757468 -64.525092 -10.847008 4.275969 20.744280 -5.720004 -6.004305 -4.137208 0.000000 -0.000000 0.000000 -11.733230 -17.347487 -67.749052 8.425508 -10.162236 22.680025 17.976528 10.692842 -1.348814 0.000000 -0.000000 0.000000 1.984736 0.980995 48.589793 -3.087604 -2.377863 -18.507407 3.056126 -0.802119 3.669953 -13.735462 7.854547 -30.194527 7.577884 -4.772363 -15.916404 13.830633 -22.185507 -6.567810 -56.735257 -18.116708 21.711029 -23.792957 -29.839520 57.725530 84.870656 -28.223025 -30.431881 -11.060811 22.143279 -2.293143 54.045037 24.093908 17.599932 20.395992 22.583639 67.716000 -68.189788 42.731804 -2.588225 
-0.848233 1.012181 0.880449 84.896259 2.799333 130.329481 19.539327 17.762590 -64.407966 -10.906730 4.433119 20.441383 -5.945417 -6.221193 -4.015849 0.000000 -0.000000 0.000000 -11.805673 -17.304714 -67.671339 8.337301 -10.269783 22.706774 17.776645 10.650809 -1.655422 0.000000 -0.000000 0.000000 2.017699 0.971609 48.657742 -2.998695 -2.417720 -18.241343 3.103061 -0.730297 3.311119 -13.644480 7.946937 -29.806809 7.408140 -4.708942 -15.887275 13.721473 -22.221049 -6.728571 -56.775770 -17.956625 21.709849 -23.804077 -29.771633 57.864787 84.375278 -28.477435 -30.296343 -10.980892 22.121192 -2.332032 53.950432 23.806428 17.563806 20.336478 22.939579 68.025722 -67.874011 42.967360 -2.080185 
-0.848450 1.012074 0.879917 84.875775 2.772615 130.394397 19.465105 17.833156 -64.452889 -10.929969 4.442431 20.394089 -5.830065 -6.319224 -4.109026 0.000000 -0.000000 0.000000 -11.674698 -17.312740 -67.967315 8.258891 -10.050693 22.926850 17.602761 10.504111 -1.284166 0.000000 -0.000000 0.000000 1.858922 1.152502 48.608414 -2.953484 -2.348072 -18.347593 3.151535 -0.737585 3.422957 -13.547436 7.790067 -29.638233 7.477015 -4.835513 -15.945757 13.771237 -22.106486 -6.647865 -56.946223 -18.132223 21.766556 -23.910020 -29.652713 57.662400 84.772922 -27.976354 -30.973627 -11.084949 21.896947 -2.260143 53.950256 23.813142 17.661691 20.466257 23.286874 68.220773 -67.589652 42.633304 -1.919092 
-0.848623 1.012250 0.880327 85.094114 2.769185 130.336175 19.407377 17.900396 -64.454030 -11.103351 4.400770 20.249621 -6.007503 -6.382523 -3.705938 0.000000 -0.000000 0.000000 -11.681582 -17.351464 -67.764646 8.264411 -10.042391 22.847283 17.576325 10.479722 -1.388356 0.000000 -0.000000 0.000000 2.085926 0.992221 48.833899 -3.061091 -2.368503 -18.556529 3.054446 -0.742484 3.533303 -13.698310 7.945058 -29.558521 7.708116 -4.708078 -15.991314 13.889137 -22.288950 -6.581025 -56.913254 -18.113864 21.714534 -23.722158 -29.834384 57.759383 84.942503 -27.887967 -30.651260 -11.262901 22.022815 -2.320213 53.974411 23.750282 17.508898 20.506497 23.145119 68.300213 -67.800477 42.560451 -1.681510 
-0.848925 1.012479 0.880237 85.218614 2.600436 130.420272 19.489684 17.663107 -64.397112 -11.216333 4.482121 19.908360 -5.922164 -6.335043 -3.743194 0.000000 -0.000000 0.000000 -11.863321 -17.541211 -67.794502 8.224418 -10.231578 22.818285 17.690401 10.410794 -1.230768 0.000000 -0.000000 0.000000 2.107807 0.995482 48.787083 -3.055499 -2.403563 -18.610622 3.002810 -0.768562 3.534332 -13.706753 7.891065 -29.496621 7.750708 -4.982997 -15.959518 14.058174 -22.461277 -6.417354 -56.902527 -18.254445 21.871008 -23.650915 -30.030880 57.673456 84.164849 -28.338701 -30.400492 -11.204543 21.956495 -2.172461 53.789654 23.769429 17.375459 20.843050 23.070595 68.474617 -66.342154 42.390698 -1.329805 
